<svg width="64" height="64" viewBox="0 0 64 64" fill="none" xmlns="http://www.w3.org/2000/svg">
<path d="M46 21H34V13H56C56.7954 12.9991 57.5579 12.6827 58.1203 12.1203C58.6828 11.5579 58.9991 10.7954 59 10V2H55V9H33C32.2046 9.00089 31.4421 9.31725 30.8797 9.87967C30.3172 10.4421 30.0009 11.2046 30 12V21H18C13.758 21.0048 9.69113 22.692 6.69159 25.6916C3.69205 28.6911 2.0048 32.758 2 37V49.6191C2.00341 52.6365 3.20356 55.5293 5.33714 57.6629C7.47073 59.7964 10.3635 60.9966 13.3809 61H13.6059C15.2748 61.0022 16.9237 60.6364 18.4351 59.9286C19.9465 59.2208 21.2832 58.1884 22.35 56.905L28.9375 49H35.016L41.5993 57.5581C43.0485 59.4417 45.051 60.8244 47.3259 61.5121C49.6009 62.1999 52.034 62.1582 54.284 61.3928C56.5341 60.6275 58.488 59.177 59.8718 57.2449C61.2556 55.3127 61.9998 52.9957 62 50.6191V37C61.9952 32.758 60.308 28.6911 57.3084 25.6916C54.3089 22.692 50.242 21.0048 46 21V21ZM58 50.6191C58 52.1605 57.5173 53.6633 56.6198 54.9164C55.7224 56.1696 54.455 57.1104 52.9957 57.6067C51.5364 58.103 49.9583 58.13 48.4829 57.6839C47.0074 57.2377 45.7087 56.3409 44.7689 55.1191L36.9847 45H27.0632L19.2765 54.3442C18.5847 55.1765 17.7179 55.846 16.7378 56.305C15.7577 56.764 14.6885 57.0013 13.6062 57H13.3813C11.4243 56.9979 9.54814 56.2196 8.16435 54.8359C6.78056 53.4522 6.00218 51.576 6 49.6191V37C6.00357 33.8185 7.269 30.7683 9.51867 28.5187C11.7683 26.269 14.8185 25.0036 18 25H46C49.1815 25.0036 52.2317 26.269 54.4813 28.5187C56.731 30.7683 57.9964 33.8185 58 37V50.6191Z" fill="#171717"/>
<path d="M49 31H45V35H49V31Z" fill="#171717"/>
<path d="M49 41H45V45H49V41Z" fill="#171717"/>
<path d="M44 36H40V40H44V36Z" fill="#171717"/>
<path d="M54 36H50V40H54V36Z" fill="#171717"/>
<path d="M19 31H15V36H10V40H15V45H19V40H24V36H19V31Z" fill="#171717"/>
</svg>
